<svg viewBox="-21 -144 682.6651 682" xmlns="http://www.w3.org/2000/svg"><path d="m625.84375 143.761719c3.476562-4.921875 6.410156-10.273438 8.707031-15.996094 11.4375-28.488281 4.628907-58.558594-18.214843-80.4375-37.132813-35.570313-87.234376-55.160156-141.070313-55.160156-27.6875 0-54.378906 5.175781-79.414063 15.394531-25.03125-10.21875-51.726562-15.394531-79.410156-15.394531-26.324218 0-51.824218 4.707031-75.851562 13.988281-24.03125-9.289062-49.53125-13.988281-75.855469-13.988281-53.835937 0-103.9375 19.589843-141.074219 55.160156-22.839844 21.878906-29.652344 51.949219-18.210937 80.4375 2.292969 5.722656 5.230469 11.066406 8.699219 15.988281-7.855469 7.871094-11.964844 16.800782-11.964844 26.15625 0 8.671875 3.523437 16.890625 10.167968 24.238282-11.503906 12.835937-8.421874 37.925781 29.921876 43.558593 29.863281 4.425781 43.710937-11.367187 53.378906 3.371094 4.894531 7.5625 18.222656 21.046875 36.753906 24.101563 14.535156 2.355468 29.308594-1.890626 40.511719-11.640626 5.113281-4.441406 12.0625-3.398437 16.222656 1.9375 9.195313 11.839844 22.753906 19.195313 37.203125 20.179688 14.464844.992188 28.789062-4.476562 39.261719-15.023438 4.644531-4.667968 11.605469-4.589843 16.171875.574219 20.898437 23.648438 56.042968 23.183594 76.527344 0 4.550781-5.144531 11.519531-5.257812 16.171874-.578125 22.050782 22.191406 57.292969 19.539063 76.460938-5.136718 4.378906-5.625 11.367188-6.171876 16.21875-1.953126 18.105469 15.742188 46.210938 17.742188 68.023438-2.238281 13.285156-10.914062 8.867187-20.796875 32.816406-14.976562 15.082031 3.761719 32.140625 2.765625 46.136718-3.105469 3.179688 3.859375 4.9375 8.699219 4.9375 13.859375v14.027344c0 12.0625-9.808593 21.875-21.863281 21.875h-554.414062c-12.054688 0-21.867188-9.8125-21.867188-21.875v-8.140625c0-5.179688-4.199219-9.375-9.375-9.375s-9.367187 4.195312-9.367187 9.375v8.140625c0 22.402343 18.214844 40.625 40.609375 40.625h534.023437c4.636719 12.757812 3.050782 27.1875-4.558594 39.484375-10.050781 16.25-28.515624 25.949218-49.382812 25.949218h-405.75c-32.78125 0-51.902344-21.898437-55.800781-42.238281-.972657-5.089843-5.886719-8.414062-10.96875-7.441406-5.082031.96875-8.414063 5.882813-7.441407 10.96875 2.992188 15.621094 11.722657 29.980469 24.582032 40.4375 13.710937 11.136719 30.867187 17.023437 49.628906 17.023437h405.75c27.402344 0 51.824219-13.019531 65.320312-34.828124 9.433594-15.242188 12.207032-32.929688 8.175782-49.355469h.835937c22.390625 0 40.609375-18.222657 40.609375-40.625v-14.027344c0-9.019531-3.058594-17.734375-8.457031-24.769531 2.222656-3.171875 3.628906-6.84375 4.03125-10.722656.660156-6.339844-1.410156-12.644532-5.703125-17.480469 6.617188-7.339844 10.132812-15.539063 10.132812-24.195313-.003906-9.339844-4.128906-18.277344-11.976562-26.148437zm-598.875 62.183593c10.21875 6.234376 21.855469 10.515626 33.363281 13.457032-15.292969 1.703125-41.324219-4.359375-33.363281-13.457032zm-6.042969-36.035156c0-4.632812 2.613281-8.8125 5.789063-12.183594 15.480468 13.617188 36.296875 21.558594 58.953125 21.558594h107.925781c-10.109375 14.199219-42.070312 27.167969-84.632812 27.167969-51.882813 0-88.035157-19.261719-88.035157-36.542969zm502.363281 66.898438c-1.503906 1.242187-2.996093 2.929687-6.011718 4.902344-11.121094 7.375-26.347656 7.652343-37.824219-2.328126-13.015625-11.304687-32.355469-9.46875-43.308594 4.59375-12.296875 15.832032-34.269531 17.628907-48.371093 3.433594-5.984376-6.015625-13.804688-9.179687-22.042969-8.910156-8.210938.273438-15.832031 3.925781-21.464844 10.292969-13.3125 15.066406-35.21875 14.960937-48.441406 0-11.589844-13.117188-31.058594-13.898438-43.511719-1.382813-14.035156 14.136719-36.007812 12.480469-48.378906-3.449218-10.851563-13.933594-30.179688-15.976563-43.304688-4.574219-12.03125 10.464843-28.785156 9.984375-40.671875.210937-9.839843-8.121094-7.410156-8.566406-13.164062-14.417968 52.101562.5 98.855469-17.519532 107.511719-45.894532h.34375c13.6875 44.863282 118.324218 59.808594 178.222656 31.570313 17.523437-8.261719 28.71875-19.246094 32.480468-31.570313h.339844c9.609375 31.503906 62.289063 46.351563 107.582032 45.894532-4.988282 5.117187-4.480469 7.082031-9.984376 11.628906zm-287.929687-57.523438h169.277344c-10.113281 14.199219-42.070313 27.167969-84.636719 27.167969-42.570312 0-74.527344-12.96875-84.640625-27.167969zm379.390625 30.355469c-.507812 4.859375-16.890625 11.800781-35.054688 9.757813 11.507813-2.945313 23.160157-7.234376 33.394532-13.488282 1.035156 1.191406 1.835937 2.042969 1.660156 3.730469zm-83.707031-3.1875c-42.566407 0-74.527344-12.96875-84.636719-27.167969h107.921875c22.65625 0 43.472656-7.933594 58.957031-21.554687 3.140625 3.335937 5.789063 7.527343 5.789063 12.179687 0 17.28125-36.15625 36.542969-88.03125 36.542969zm86.113281-85.667969c-9.691406 24.144532-34.355469 39.75-62.828125 39.75h-468.660156c-28.472657 0-53.132813-15.605468-62.828125-39.75-8.480469-21.128906-3.324219-43.527344 13.785156-59.917968 33.632812-32.210938 79.125-49.949219 128.109375-49.949219 17.5 0 34.585937 2.277343 51.035156 6.785156-21.082031 11.613281-47.816406 31.339844-57.960937 54.339844-2.085938 4.742187.058594 10.273437 4.792968 12.363281 4.726563 2.085938 10.265626-.046875 12.359376-4.792969 3.003906-6.8125 7.503906-13.121093 13.378906-18.746093 15.914062-15.242188 34.675781-27.332032 55.765625-35.933594.011719-.003906.015625-.007813.023437-.007813 22.804688-9.296875 47.128906-14.007812 72.316406-14.007812 19.203126 0 37.871094 2.738281 55.734376 8.136719-13.871094 7.902343-26.589844 17.359374-37.980469 28.273437-5.550781 5.316406-10.609375 13.289063-15.035157 23.710937-2.636718 6.210938 1.96875 13.042969 8.625 13.042969 3.644532 0 7.113282-2.144531 8.632813-5.714843 3.371094-7.949219 7.082031-14 10.742187-17.5 15.03125-14.402344 32.664063-26.019532 52.394532-34.527344h.003906c23.742188-10.234375 49.210938-15.417969 75.703125-15.417969 48.980469 0 94.480469 17.734375 128.105469 49.949219 17.117187 16.386718 22.265625 38.785156 13.785156 59.914062zm0 0"/></svg>