<?xml version="1.0" encoding="iso-8859-1"?>
<!-- Generator: Adobe Illustrator 19.0.0, SVG Export Plug-In . SVG Version: 6.00 Build 0)  -->
<svg version="1.1" id="Capa_1" xmlns="http://www.w3.org/2000/svg" xmlns:xlink="http://www.w3.org/1999/xlink" x="0px" y="0px"
	 viewBox="0 0 511.998 511.998" style="enable-background:new 0 0 511.998 511.998;" xml:space="preserve">
<g>
	<g>
		<path d="M430.313,258.633v11.205c0,6-0.344,12.034-1.022,17.934l14.902,1.713c0.743-6.467,1.12-13.077,1.12-19.647v-11.205
			H430.313z"/>
	</g>
</g>
<g>
	<g>
		<path d="M427.548,299.143c-9.164,47.72-41.55,88.752-86.634,109.76l6.336,13.596c24.112-11.235,45.492-28,61.828-48.481
			c16.687-20.921,28.167-45.834,33.2-72.047L427.548,299.143z"/>
	</g>
</g>
<g>
	<g>
		<rect x="283.48" y="463.92" width="22.23" height="15"/>
	</g>
</g>
<g>
	<g>
		<rect x="164.97" y="463.92" width="108.65" height="15"/>
	</g>
</g>
<g>
	<g>
		<path d="M0,235.057v36.472c0,84.638,54.509,157.49,136.233,183.005v46.85h198.22v-46.85
			c81.725-25.515,136.234-98.367,136.234-183.005v-36.472H0z M455.687,271.53c0,79.723-52.553,148.117-130.771,170.192l-5.463,1.541
			v43.121h-168.22V456.44h127.573v-15h-134c-47.272-13.609-85.079-44.17-107.435-83.906h78.791v-15H29.868
			C20.241,320.726,15,296.693,15,271.529v-21.471h326.244v33.663h15v-33.663h99.443V271.53z"/>
	</g>
</g>
<g>
	<g>
		<path d="M235.344,275.626L171.94,339.03l63.404,63.404l63.404-63.404L235.344,275.626z M193.153,339.03l42.191-42.191
			l42.191,42.191l-42.191,42.191L193.153,339.03z"/>
	</g>
</g>
<g>
	<g>
		<path d="M509.376,78.676c-1.819-1.933-4.384-3.041-7.036-3.041h-31.596c-62.431,0-122.591,22.747-169.4,64.051
			c-1.296,1.144-2.961,1.772-4.689,1.772H182.569c-3.02,0-5.782,1.526-7.39,4.083c-1.607,2.556-1.786,5.707-0.477,8.429
			l5.031,10.464c16.489,34.292,51.729,56.449,89.778,56.449c35.779,0,68.708-20.935,83.888-53.334
			c4.834-10.316,12.85-18.939,22.569-24.28c18.813-10.336,40.103-15.8,61.566-15.8h30.195c23.387,0,42.823-18.269,44.251-41.594
			C512.143,83.231,511.192,80.607,509.376,78.676z M467.731,112.469h-30.195c-23.982,0-47.77,6.104-68.79,17.653
			c-12.664,6.959-22.667,17.7-28.928,31.063c-12.723,27.153-40.319,44.698-70.306,44.698c-32.32,0-62.254-18.821-76.261-47.949
			l-0.709-1.476h104.111c5.386,0,10.576-1.962,14.613-5.524c44.067-38.885,100.704-60.299,159.477-60.299H496.1
			C492.771,103.248,481.249,112.469,467.731,112.469z"/>
	</g>
</g>
<g>
	<g>
		<path d="M314.316,156.16c-1.334,2.845-2.935,5.576-4.76,8.119l12.186,8.746c2.361-3.29,4.433-6.822,6.156-10.5L314.316,156.16z"/>
	</g>
</g>
<g>
	<g>
		<path d="M305.49,169.251c-9.635,10.371-23.279,16.319-37.433,16.319v15c18.311,0,35.96-7.694,48.423-21.11L305.49,169.251z"/>
	</g>
</g>
<g>
	<g>
		<path d="M283.226,49.634c0-7.257,2.438-10.511,5.811-15.013c3.923-5.237,8.806-11.754,8.806-24.007h-15
			c0,7.257-2.438,10.511-5.811,15.013c-3.923,5.237-8.806,11.754-8.806,24.007c0,12.254,4.883,18.771,8.806,24.009
			c3.373,4.504,5.811,7.758,5.811,15.016c0,7.259-2.438,10.513-5.811,15.017c-3.924,5.238-8.806,11.756-8.806,24.009h15
			c0-7.259,2.438-10.513,5.811-15.017c3.923-5.237,8.806-11.755,8.806-24.009c0-12.253-4.883-18.771-8.806-24.008
			C285.664,60.147,283.226,56.893,283.226,49.634z"/>
	</g>
</g>
<g>
	<g>
		<path d="M244.524,10.615h-15c0,7.257-2.438,10.51-5.811,15.013c-3.924,5.236-8.807,11.754-8.807,24.007
			c0,6.601,1.367,12.114,4.303,17.353l13.086-7.332c-1.112-1.984-2.389-4.917-2.389-10.021c0-7.257,2.438-10.51,5.811-15.013
			C239.641,29.386,244.524,22.868,244.524,10.615z"/>
	</g>
</g>
<g>
	<g>
		<path d="M240.225,71.312l-13.088,7.33c1.111,1.983,2.387,4.915,2.387,10.018c0,7.259-2.438,10.513-5.812,15.016
			c-3.923,5.238-8.806,11.756-8.806,24.01h15c0-7.259,2.438-10.513,5.812-15.017c3.923-5.236,8.806-11.755,8.806-24.009
			C244.524,82.061,243.158,76.549,240.225,71.312z"/>
	</g>
</g>
<g>
</g>
<g>
</g>
<g>
</g>
<g>
</g>
<g>
</g>
<g>
</g>
<g>
</g>
<g>
</g>
<g>
</g>
<g>
</g>
<g>
</g>
<g>
</g>
<g>
</g>
<g>
</g>
<g>
</g>
</svg>
